<?xml version="1.0" standalone="no"?>
<!DOCTYPE svg PUBLIC "-//W3C//DTD SVG 20010904//EN"
 "http://www.w3.org/TR/2001/REC-SVG-20010904/DTD/svg10.dtd">
<svg version="1.0" xmlns="http://www.w3.org/2000/svg"
 width="1123.000000pt" height="456.000000pt" viewBox="0 0 1123.000000 456.000000"
 preserveAspectRatio="xMidYMid meet">

<g transform="translate(0.000000,456.000000) scale(0.100000,-0.100000)"
fill="#222222" stroke="none">
<path d="M1225 4338 c-6 -16 -255 -928 -318 -1163 -69 -256 -84 -324 -92 -398
-4 -37 -17 -102 -31 -145 -13 -42 -24 -90 -24 -107 0 -16 -9 -49 -19 -72 -11
-22 -24 -67 -31 -98 -6 -31 -20 -75 -30 -98 -10 -23 -21 -63 -24 -89 -4 -29
-17 -60 -32 -77 -24 -29 -90 -243 -134 -436 -10 -44 -32 -123 -48 -176 -17
-53 -67 -233 -112 -400 -45 -167 -92 -342 -105 -389 -63 -228 -77 -277 -101
-361 -14 -50 -23 -93 -19 -97 11 -11 8568 -15 8960 -3 368 10 445 18 613 67
226 65 399 169 573 343 378 380 571 968 629 1921 20 330 31 898 19 995 -44
360 -258 611 -625 734 -196 66 179 61 -4656 61 -3502 0 -4390 -3 -4393 -12z
m1381 -590 c-3 -13 -107 -360 -230 -773 -123 -412 -223 -751 -222 -752 1 -2
75 77 163 175 89 97 175 192 192 210 l30 32 333 0 333 0 169 565 169 565 439
0 c395 0 440 -2 434 -16 -22 -56 -833 -2793 -866 -2921 l-11 -43 -434 0 c-392
0 -435 2 -435 16 0 18 17 77 172 607 61 208 109 379 107 381 -8 7 -904 32
-912 26 -7 -6 -189 -618 -274 -920 l-30 -105 -436 -3 c-285 -1 -437 1 -437 8
0 21 234 817 647 2200 124 415 227 758 230 763 2 4 200 7 440 7 l435 0 -6 -22z
m2984 16 c0 -4 -109 -421 -241 -928 -232 -886 -241 -924 -237 -996 6 -95 32
-154 98 -224 96 -101 225 -135 391 -102 113 23 246 88 326 161 71 64 152 179
181 257 11 29 124 451 252 938 127 486 234 888 236 892 3 4 198 8 435 8 387 0
429 -2 429 -16 0 -31 -512 -2040 -546 -2143 -145 -439 -518 -761 -984 -848
-83 -15 -158 -18 -575 -18 -554 0 -570 2 -742 86 -173 85 -312 237 -381 416
-42 108 -55 196 -50 317 5 90 30 200 242 1036 131 514 251 988 268 1053 l31
117 433 0 c239 0 434 -3 434 -6z m4055 -9 c273 -48 496 -240 582 -500 22 -68
26 -98 27 -200 0 -101 -4 -136 -27 -219 -54 -195 -157 -377 -289 -507 l-77
-77 35 -79 c59 -138 76 -221 77 -373 1 -100 -3 -152 -16 -200 -65 -239 -314
-542 -542 -705 l-74 -45 -1203 0 c-775 0 -1203 3 -1203 10 0 12 886 2856 900
2888 l10 22 873 0 c740 0 888 -2 962 -15z"/>
<path d="M8360 2908 c-23 -73 -78 -245 -121 -383 -44 -137 -78 -252 -77 -257
2 -4 85 54 186 128 l183 134 319 0 c200 0 329 4 347 11 39 15 91 67 102 103
20 66 43 229 37 262 -8 42 -59 102 -103 120 -25 11 -119 14 -432 14 l-400 0
-41 -132z"/>
<path d="M8075 1958 c-3 -7 -30 -96 -60 -198 -31 -102 -58 -193 -61 -202 -5
-17 21 -18 454 -18 502 0 516 1 602 59 25 17 56 46 69 65 24 37 121 270 121
293 0 19 -1118 19 -1125 1z"/>
</g>
</svg>
